<?xml version="1.0" standalone="no"?>
<!DOCTYPE svg PUBLIC "-//W3C//DTD SVG 20010904//EN"
 "http://www.w3.org/TR/2001/REC-SVG-20010904/DTD/svg10.dtd">
<svg version="1.0" xmlns="http://www.w3.org/2000/svg"
 width="512.000000pt" height="268.000000pt" viewBox="0 0 512.000000 268.000000"
 preserveAspectRatio="xMidYMid meet">

<g transform="translate(0.000000,268.000000) scale(0.100000,-0.100000)"
fill="#000000" stroke="none">
<path d="M336 2653 c-3 -16 -11 -198 -17 -406 l-12 -378 -84 3 c-46 2 -84 -1
-86 -6 -2 -5 -33 -8 -70 -7 l-67 2 0 -176 c0 -165 1 -177 18 -170 40 17 50 17
54 -1 2 -15 15 -18 78 -19 159 -1 282 -104 306 -254 l7 -43 51 6 c28 3 59 6
69 6 11 0 17 8 17 25 0 23 -3 25 -52 25 -35 0 -48 3 -39 9 11 7 10 10 -5 13
-11 3 9 11 45 19 l63 13 -5 59 c-7 74 -22 91 -84 95 -26 1 -70 9 -98 16 l-50
14 87 1 c108 1 120 5 108 36 -6 16 -5 25 3 29 7 2 5 5 -4 5 -18 1 -33 27 -23
42 3 5 -6 13 -20 19 -29 11 -34 28 -11 37 19 7 48 -18 87 -75 l29 -42 26 20
c31 24 51 26 59 5 4 -8 12 -15 20 -15 7 0 23 -13 36 -30 l22 -30 117 0 c120 0
149 4 149 22 0 7 -25 9 -67 6 -38 -3 -60 -3 -50 -1 20 5 23 19 5 26 -7 3 -1 6
13 6 25 1 27 5 32 49 3 33 -1 56 -14 79 -12 21 -14 33 -7 35 18 6 0 27 -43 49
-22 11 -43 27 -46 35 -7 19 -62 74 -74 74 -5 0 -9 18 -9 40 0 33 3 40 20 40
23 0 24 7 9 47 -15 39 6 113 32 113 12 0 19 7 19 19 0 10 11 30 25 45 16 18
25 39 25 60 0 25 5 35 20 39 15 4 20 14 20 37 0 23 9 40 37 66 20 19 43 32 51
29 47 -18 60 -17 65 7 4 23 4 23 6 1 2 -41 51 -24 51 17 0 16 5 32 10 35 6 3
10 15 10 26 0 10 5 19 10 19 6 0 10 21 10 48 0 31 7 55 20 72 11 14 20 28 20
33 0 4 -207 7 -459 7 l-459 0 -6 -27z m551 -445 c-3 -7 -5 -2 -5 12 0 14 2 19
5 13 2 -7 2 -19 0 -25z m-807 -421 c0 -5 -6 -7 -12 -4 -7 2 -21 -2 -31 -11
-19 -17 -30 -12 -22 9 8 20 48 37 57 24 4 -5 8 -14 8 -18z"/>
<path d="M1280 2665 c0 -8 2 -15 4 -15 2 0 6 7 10 15 3 8 1 15 -4 15 -6 0 -10
-7 -10 -15z"/>
<path d="M1321 2643 c-1 -24 4 -43 9 -43 12 0 12 24 0 60 -7 21 -8 19 -9 -17z"/>
<path d="M3513 2645 c0 -22 2 -30 4 -17 2 12 2 30 0 40 -3 9 -5 -1 -4 -23z"/>
<path d="M3615 2671 c3 -5 25 -17 50 -27 25 -9 45 -22 45 -29 0 -7 11 -16 25
-19 14 -4 25 -13 25 -20 0 -8 18 -33 40 -56 30 -31 40 -50 40 -74 0 -31 -4
-34 -47 -48 -26 -8 -48 -19 -50 -24 -3 -9 5 -14 63 -44 16 -8 36 -23 45 -32 9
-10 21 -18 27 -18 17 0 27 -71 12 -80 -17 -11 -7 -97 14 -118 15 -15 16 -14
16 11 0 25 3 27 40 27 29 0 40 -4 40 -15 0 -8 9 -15 19 -15 11 0 23 -4 26 -10
3 -5 -3 -10 -15 -10 -11 0 -23 -7 -26 -15 -4 -10 -20 -15 -47 -15 -69 0 -28
-19 48 -22 54 -2 70 -6 70 -18 0 -12 -15 -16 -65 -18 -36 -1 -72 -5 -80 -9 -8
-3 -26 -6 -40 -5 -18 0 -20 -1 -7 -5 16 -4 18 -11 12 -41 -4 -21 -11 -38 -16
-40 -5 -2 -9 -21 -9 -43 0 -27 -4 -39 -14 -39 -8 0 -17 6 -19 13 -3 6 -6 0 -6
-15 -1 -29 -16 -38 -24 -15 -2 6 -7 -3 -12 -22 -5 -24 -3 -36 6 -42 10 -6 10
-9 2 -9 -19 0 -26 20 -33 90 -7 60 -7 57 -8 -40 -1 -78 2 -110 13 -124 16 -22
19 -87 6 -153 -9 -49 -4 -53 68 -53 51 0 62 -5 55 -24 -3 -9 -22 -11 -59 -8
-45 4 -56 1 -61 -12 -4 -10 -2 -22 5 -29 18 -18 13 -23 -23 -19 -18 2 -37 -1
-40 -7 -4 -7 1 -11 14 -11 11 0 23 -6 26 -13 3 -9 52 -13 196 -16 184 -3 192
-4 216 -26 25 -23 30 -24 241 -25 119 -1 232 -2 252 -3 19 0 46 7 59 16 14 9
29 17 36 17 11 0 36 91 27 100 -2 3 -44 6 -91 6 -48 1 -140 2 -204 4 -64 1
-122 -1 -128 -5 -6 -4 -16 -2 -23 3 -11 9 -61 11 -314 12 -98 0 -113 2 -113
16 0 15 25 16 258 12 l257 -4 -3 38 c-4 33 -1 39 23 48 14 5 108 11 208 12
l182 2 -202 6 c-111 3 -204 7 -207 10 -5 5 -2 165 18 963 l4 187 -334 0 c-357
0 -345 2 -301 -47 11 -13 17 -26 13 -30 -4 -5 -25 11 -46 35 -38 42 -39 42
-110 42 -41 0 -69 -4 -65 -9z m448 -403 c4 -10 8 -9 16 2 16 23 21 7 9 -32 -7
-25 -22 -42 -49 -58 -22 -12 -39 -16 -39 -11 0 16 22 54 40 67 12 10 12 14 1
28 -11 14 -11 16 2 16 8 0 18 -6 20 -12z m62 -288 c4 -6 -5 -10 -19 -10 -14 0
-26 5 -26 10 0 6 9 10 19 10 11 0 23 -4 26 -10z m-100 -30 c-3 -5 -28 -10 -56
-10 -27 0 -49 5 -49 10 0 6 25 10 56 10 34 0 53 -4 49 -10z m90 -130 c-3 -5
-13 -10 -21 -10 -8 0 -14 5 -14 10 0 6 9 10 21 10 11 0 17 -4 14 -10z"/>
<path d="M3304 2640 c-27 -11 -60 -52 -84 -108 -22 -49 -25 -72 -10 -72 6 0
10 5 10 11 0 28 42 69 78 75 20 3 43 13 50 22 11 14 12 13 12 -5 0 -12 18 -36
46 -58 45 -37 81 -96 69 -115 -3 -5 0 -12 6 -15 5 -4 8 -13 6 -19 -3 -7 2 -13
10 -13 10 0 13 8 10 23 -3 17 1 25 14 29 13 4 19 17 20 38 2 46 -2 71 -12 83
-5 6 -10 23 -11 37 -1 14 -5 24 -9 22 -3 -3 -17 7 -30 22 -43 46 -120 66 -175
43z m21 -40 c3 -5 1 -10 -4 -10 -6 0 -11 5 -11 10 0 6 2 10 4 10 3 0 8 -4 11
-10z"/>
<path d="M3705 2480 c-19 -8 -19 -9 2 -9 12 -1 28 -4 37 -7 11 -4 16 -1 16 10
0 17 -23 20 -55 6z"/>
<path d="M3270 2420 c8 -5 20 -10 25 -10 6 0 3 5 -5 10 -8 5 -19 10 -25 10 -5
0 -3 -5 5 -10z"/>
<path d="M3240 2399 c0 -12 52 -21 62 -11 6 6 -4 11 -26 14 -20 2 -36 1 -36
-3z"/>
<path d="M3358 2399 c-33 -19 -20 -35 31 -37 55 -2 69 8 45 32 -18 18 -51 20
-76 5z"/>
<path d="M1002 2340 c0 -14 2 -19 5 -12 2 6 2 18 0 25 -3 6 -5 1 -5 -13z"/>
<path d="M3258 2319 c-22 -12 -23 -25 -2 -33 9 -3 12 -2 9 5 -4 5 -1 16 5 24
14 17 12 18 -12 4z"/>
<path d="M3355 2311 c-3 -6 -15 -11 -26 -11 -11 0 -17 -4 -14 -10 3 -5 0 -11
-7 -11 -7 -1 1 -5 17 -9 29 -7 29 -8 8 -15 -27 -9 -30 -22 -5 -27 9 -2 32 7
50 20 17 13 32 21 32 18 0 -15 -53 -85 -61 -80 -5 3 -9 0 -9 -5 0 -6 -7 -11
-16 -11 -11 0 -14 -5 -10 -16 3 -9 6 -18 6 -20 0 -2 7 -4 15 -4 8 0 15 -5 15
-11 0 -8 5 -7 16 1 12 11 15 11 12 0 -2 -8 5 -16 15 -18 16 -3 18 3 16 45 -1
26 -7 54 -12 61 -8 10 -5 14 11 19 12 3 19 9 16 14 -3 5 -1 9 5 9 5 0 8 8 6
18 -2 9 -4 23 -4 30 -1 9 -6 10 -18 3 -13 -7 -23 -5 -35 5 -11 10 -18 12 -23
5z"/>
<path d="M3738 2283 c7 -3 16 -2 19 1 4 3 -2 6 -13 5 -11 0 -14 -3 -6 -6z"/>
<path d="M3493 2175 c0 -22 2 -30 4 -17 2 12 2 30 0 40 -3 9 -5 -1 -4 -23z"/>
<path d="M3447 2154 c3 -9 7 -30 8 -48 2 -17 3 -37 4 -43 0 -7 6 -13 11 -13
17 0 12 87 -6 104 -20 20 -25 20 -17 0z"/>
<path d="M3226 2118 c13 -43 23 -68 28 -68 3 0 -2 20 -11 45 -15 45 -31 65
-17 23z"/>
<path d="M3186 2045 c-11 -8 -15 -15 -9 -15 6 0 16 7 23 15 16 19 11 19 -14 0z"/>
<path d="M3486 2026 c3 -9 11 -16 16 -16 13 0 5 23 -10 28 -7 2 -10 -2 -6 -12z"/>
<path d="M3751 1914 c0 -11 3 -14 6 -6 3 7 2 16 -1 19 -3 4 -6 -2 -5 -13z"/>
<path d="M3036 1868 c-20 -28 -21 -59 -2 -52 13 5 31 62 22 71 -2 2 -11 -6
-20 -19z"/>
<path d="M2767 1836 c3 -14 9 -23 15 -20 5 3 15 1 22 -5 11 -9 15 -6 19 11 7
27 8 26 -30 34 -29 6 -30 4 -26 -20z"/>
<path d="M2940 1838 c-8 -11 -31 -23 -50 -28 l-35 -8 37 -1 c30 -1 41 4 54 24
20 31 15 41 -6 13z"/>
<path d="M3092 1820 c0 -14 2 -19 5 -12 2 6 2 18 0 25 -3 6 -5 1 -5 -13z"/>
<path d="M2635 1700 c-3 -5 -1 -10 4 -10 6 0 11 5 11 10 0 6 -2 10 -4 10 -3 0
-8 -4 -11 -10z"/>
<path d="M2730 1700 c-13 -8 -12 -10 3 -10 9 0 17 5 17 10 0 12 -1 12 -20 0z"/>
<path d="M1710 1631 c0 -7 25 -11 73 -12 39 -1 88 -2 107 -4 53 -5 475 -25
743 -35 132 -5 242 -11 245 -14 3 -3 -13 -6 -35 -6 -30 0 -42 -4 -45 -17 -7
-32 3 -53 25 -53 16 0 18 -3 8 -9 -8 -5 -9 -11 -3 -15 6 -3 14 -1 17 5 4 5 13
8 21 5 13 -5 19 12 15 37 -1 5 3 6 9 2 6 -3 7 -11 4 -17 -4 -6 -1 -8 7 -6 8 3
13 10 12 16 -2 8 5 9 22 2 23 -9 26 -7 32 21 3 17 12 33 19 36 8 3 14 11 14
18 0 9 -55 14 -227 19 -263 8 -677 23 -905 32 -116 5 -158 4 -158 -5z m1251
-78 c-7 -12 -10 -13 -11 -4 0 10 -3 11 -13 2 -8 -6 -17 -8 -20 -4 -4 3 -7 1
-7 -5 0 -7 -8 -12 -17 -11 -11 0 -13 3 -5 6 6 2 10 9 6 14 -3 5 -2 9 3 8 4 -1
15 0 23 4 49 18 57 17 41 -10z"/>
<path d="M3567 1580 c3 -36 9 -99 13 -140 8 -69 9 -66 4 30 -2 58 -9 121 -13
140 -7 27 -8 20 -4 -30z"/>
<path d="M2653 1563 c9 -2 23 -2 30 0 6 3 -1 5 -18 5 -16 0 -22 -2 -12 -5z"/>
<path d="M4913 1498 c-22 -35 -45 -72 -50 -83 -25 -47 -42 -185 -42 -350 -1
-179 -13 -269 -43 -323 -10 -18 -18 -40 -18 -48 0 -11 -6 -14 -16 -10 -9 3
-18 6 -20 6 -9 0 -3 47 11 94 8 27 15 64 15 81 0 32 0 32 -74 46 l-75 13 32
44 c45 64 86 103 124 119 35 14 40 32 23 77 -16 44 1 60 -260 -240 -78 -90
-108 -113 -121 -93 -6 10 -10 5 -15 -19 -4 -22 -15 -37 -30 -42 -27 -11 -64
-41 -64 -53 0 -5 -11 -23 -24 -40 -31 -42 -53 -93 -59 -137 -3 -19 -11 -56
-18 -82 -14 -54 -1 -53 -148 -11 -99 28 -105 25 -96 -54 4 -39 2 -53 -7 -53
-8 0 -5 -5 5 -11 9 -5 17 -21 17 -34 0 -21 4 -24 28 -20 15 2 57 7 93 10 57 4
70 2 92 -15 l26 -21 -56 -69 c-42 -51 -60 -67 -69 -59 -9 8 -11 5 -7 -10 4
-16 0 -21 -13 -22 -74 -2 -121 -13 -137 -30 -10 -10 -28 -19 -41 -19 -37 0
-136 -22 -136 -30 0 -14 443 -11 452 3 6 9 8 9 8 0 0 -10 69 -13 309 -13 l310
0 3 22 c3 22 7 23 106 22 108 0 112 2 87 46 -29 50 -21 60 45 60 l60 0 0 40
c0 33 -3 40 -20 40 -11 0 -20 6 -20 14 0 9 8 13 23 10 17 -3 16 -2 -5 6 -32
13 -48 54 -48 120 0 49 -14 66 -45 54 -18 -7 -20 12 -2 20 6 3 1 3 -13 0 -14
-4 -22 -3 -18 1 12 13 -16 34 -30 23 -10 -8 -4 -16 22 -34 19 -13 44 -24 55
-24 22 0 29 -24 9 -36 -6 -4 -8 -3 -5 3 4 6 0 14 -9 17 -9 3 -12 2 -9 -5 8
-13 -115 -1 -129 12 -6 6 -4 9 5 9 8 0 19 8 26 18 9 15 8 21 -6 29 -13 8 -16
28 -15 114 1 139 13 425 20 472 l6 37 66 0 c81 0 142 9 142 21 0 5 -30 9 -67
9 -38 0 -84 3 -104 6 -32 5 -35 9 -31 34 5 33 36 70 60 71 9 0 45 0 80 -1 l62
-1 0 71 0 71 -74 -2 c-40 -1 -78 1 -85 5 -18 11 -13 26 10 26 11 0 18 4 14 10
-3 5 -12 7 -20 4 -16 -7 -45 18 -45 37 0 7 7 21 17 31 14 15 30 78 20 78 -2 0
-22 -28 -44 -62z m-647 -1390 c-5 -28 -4 -31 7 -16 9 11 18 14 28 7 11 -7 11
-9 -3 -9 -10 0 -18 -4 -18 -10 0 -12 -52 -34 -103 -44 -21 -4 -36 -10 -33 -14
2 -4 -7 -7 -20 -7 -41 0 -26 28 49 93 25 21 48 32 69 32 29 0 30 -2 24 -32z"/>
<path d="M5013 1503 c20 -2 54 -2 75 0 20 2 3 4 -38 4 -41 0 -58 -2 -37 -4z"/>
<path d="M1183 1493 c9 -2 25 -2 35 0 9 3 1 5 -18 5 -19 0 -27 -2 -17 -5z"/>
<path d="M1248 1493 c6 -2 18 -2 25 0 6 3 1 5 -13 5 -14 0 -19 -2 -12 -5z"/>
<path d="M1358 1493 c12 -2 30 -2 40 0 9 3 -1 5 -23 4 -22 0 -30 -2 -17 -4z"/>
<path d="M25 1480 c-7 -12 2 -12 30 0 19 8 19 9 -2 9 -12 1 -25 -3 -28 -9z"/>
<path d="M2788 1473 c7 -3 16 -2 19 1 4 3 -2 6 -13 5 -11 0 -14 -3 -6 -6z"/>
<path d="M768 1452 c-9 -10 -13 -10 -19 -1 -6 10 -11 10 -22 0 -9 -6 -18 -8
-21 -3 -3 5 -19 7 -36 4 -26 -4 -30 -8 -30 -38 0 -36 7 -43 56 -54 25 -6 39
-4 49 6 14 14 139 14 651 -1 l172 -5 5 32 c8 50 -7 56 -156 57 -116 1 -388 8
-575 14 -42 1 -67 -2 -74 -11z"/>
<path d="M2648 1463 c7 -3 16 -2 19 1 4 3 -2 6 -13 5 -11 0 -14 -3 -6 -6z"/>
<path d="M1706 1437 c-27 -9 -40 -35 -30 -61 4 -11 19 -16 53 -16 25 0 105 -3
176 -5 72 -3 197 -7 279 -10 112 -4 152 -2 164 7 12 10 14 10 8 1 -5 -10 12
-13 77 -13 46 0 152 -3 235 -7 l152 -6 0 40 0 40 -177 8 c-203 9 -352 13 -608
15 -99 2 -184 5 -190 8 -15 9 -111 8 -139 -1z m617 -84 c-7 -2 -21 -2 -30 0
-10 3 -4 5 12 5 17 0 24 -2 18 -5z m474 -9 c-3 -3 -12 -4 -19 -1 -8 3 -5 6 6
6 11 1 17 -2 13 -5z"/>
<path d="M2960 1396 c-43 -52 -60 -86 -55 -109 4 -15 -7 -43 -34 -88 -22 -36
-43 -78 -47 -93 -8 -32 -10 -32 -57 0 -21 14 -55 28 -75 31 -20 3 -42 11 -48
19 -9 11 -18 9 -53 -8 -24 -11 -48 -31 -53 -44 -6 -13 -14 -21 -18 -19 -12 7
-116 -107 -139 -153 -28 -56 -27 -87 10 -173 17 -41 33 -83 36 -94 3 -11 12
-28 20 -37 8 -9 12 -21 9 -27 -4 -5 -1 -13 7 -18 7 -4 21 -26 30 -49 16 -36
22 -40 47 -36 15 2 31 -1 34 -7 4 -6 4 -11 -1 -12 -4 0 -30 -2 -57 -4 -45 -2
-76 -21 -76 -45 0 -15 195 -31 247 -21 29 6 59 8 67 5 20 -8 39 29 24 44 -9 9
-8 12 5 12 10 0 22 11 29 25 6 13 18 26 27 28 9 3 4 5 -11 6 -16 1 -31 -6 -37
-16 -16 -29 -24 -7 -12 30 7 20 19 38 28 41 18 7 53 -20 53 -41 0 -8 12 -13
31 -13 36 0 67 -15 92 -44 l18 -21 -11 22 c-6 13 -25 30 -43 40 l-32 17 25 6
25 6 -28 8 c-21 5 -26 10 -19 19 5 7 17 34 26 62 9 27 29 65 44 85 52 66 97
150 72 135 -6 -4 -32 -1 -59 6 -41 10 -52 19 -85 67 -20 30 -35 61 -32 69 4 8
-4 17 -19 23 -24 9 -24 10 -11 52 30 97 33 101 71 96 19 -2 35 0 35 4 0 4 -13
8 -30 8 -16 0 -30 2 -30 5 0 8 32 70 64 127 17 29 26 58 24 76 l-3 29 -25 -31z"/>
<path d="M3730 1410 c0 -5 5 -10 11 -10 5 0 7 5 4 10 -3 6 -8 10 -11 10 -2 0
-4 -4 -4 -10z"/>
<path d="M4745 1410 c3 -5 26 -10 51 -10 24 0 44 5 44 10 0 6 -23 10 -51 10
-31 0 -48 -4 -44 -10z"/>
<path d="M325 1251 c-3 -6 0 -8 9 -5 8 3 16 -1 19 -10 4 -14 5 -14 3 0 -1 20
-21 30 -31 15z"/>
<path d="M743 1237 c3 -9 61 -13 213 -17 115 -3 204 -7 197 -8 -6 -1 -22 -21
-35 -44 -22 -37 -24 -52 -20 -111 2 -38 0 -73 -6 -80 -6 -6 -12 -28 -13 -48
-3 -30 4 -44 39 -85 23 -27 42 -44 42 -38 0 6 -9 21 -20 34 -23 26 -24 30 -10
30 6 0 15 -11 22 -24 6 -14 32 -40 59 -58 27 -18 48 -37 46 -42 -3 -9 -95 -35
-129 -36 -18 0 -42 56 -27 65 5 4 12 -1 15 -9 3 -9 10 -16 16 -16 5 0 -5 27
-24 60 -25 46 -34 56 -41 44 -5 -9 -1 -38 12 -76 20 -58 20 -62 3 -74 -9 -7
-22 -14 -28 -14 -22 0 -100 -39 -116 -57 -9 -10 -19 -37 -23 -61 l-7 -43 -36
8 c-21 4 -50 7 -67 8 l-30 0 -3 -72 c-2 -62 -6 -73 -23 -78 -30 -10 -89 -65
-89 -83 0 -12 -3 -13 -11 -5 -8 8 -7 28 5 75 23 92 36 197 41 331 3 66 8 123
11 129 11 17 -7 118 -21 118 -14 0 -65 -62 -65 -81 0 -6 -10 -27 -21 -46 -21
-33 -21 -38 -8 -91 8 -32 13 -70 12 -87 -3 -77 -22 -215 -32 -233 -7 -14 -8
-29 -1 -46 7 -19 6 -24 -4 -20 -7 3 -21 -4 -31 -16 -10 -11 -31 -20 -46 -20
-15 0 -40 -5 -54 -12 -34 -15 -61 8 -49 43 l7 24 10 -28 c13 -40 30 -29 44 29
7 27 27 77 44 110 17 34 32 77 35 95 2 19 9 66 16 104 6 39 12 101 12 139 -1
68 -1 70 -41 107 -22 21 -59 43 -82 49 -44 11 -49 23 -26 54 8 11 15 32 15 47
0 27 -21 54 -33 42 -13 -13 -7 14 8 33 16 21 20 54 6 54 -5 0 -8 -7 -7 -16 0
-11 -7 -18 -21 -19 -17 -1 -23 4 -23 17 0 11 -5 16 -10 13 -6 -4 -7 -11 -4
-17 4 -6 -1 -6 -14 1 -27 15 -45 14 -39 -1 2 -7 11 -12 20 -10 21 3 31 -14 12
-22 -8 -3 -15 -12 -15 -20 0 -9 -10 -20 -21 -27 -16 -8 -20 -8 -14 1 4 7 -6 5
-24 -4 -22 -12 -31 -13 -31 -4 0 6 -6 4 -13 -6 -16 -21 -47 -27 -66 -12 -11 8
-13 8 -8 -1 5 -8 1 -8 -17 0 -23 11 -24 12 -5 19 10 4 19 10 19 12 0 3 -7 2
-17 -1 -11 -4 -14 -3 -9 5 4 7 3 12 -2 12 -13 0 -33 -25 -26 -32 3 -3 -11 -9
-31 -12 l-35 -7 0 -84 c0 -74 3 -87 23 -106 21 -20 21 -21 1 -15 -18 5 -20 1
-22 -33 -3 -38 -1 -40 29 -43 l31 -3 -20 -22 c-11 -13 -24 -23 -31 -23 -6 0
-11 -13 -11 -30 0 -16 4 -30 9 -30 6 0 9 -8 9 -17 0 -10 3 -30 7 -46 6 -21 4
-27 -9 -27 -14 0 -16 -22 -16 -195 0 -131 3 -195 11 -195 5 0 8 -4 5 -9 -11
-17 -16 -111 -6 -111 5 0 14 -9 20 -21 10 -17 8 -21 -9 -26 -12 -3 -21 -14
-21 -24 0 -18 14 -19 345 -19 l345 0 0 45 c0 25 -5 64 -11 88 -13 45 -4 141
11 132 5 -3 16 8 25 24 8 16 25 37 37 46 23 15 23 15 33 -38 l10 -53 63 18
c34 11 61 22 58 26 -2 4 23 8 56 9 75 3 121 -17 142 -62 12 -24 24 -34 48 -38
48 -9 429 -30 434 -24 3 2 0 23 -5 46 -12 54 4 94 36 88 18 -3 22 2 28 39 4
26 2 52 -5 65 -16 30 0 43 44 35 25 -5 37 -14 45 -34 9 -22 10 -18 5 28 -8 81
-12 84 -121 76 l-93 -6 0 31 c0 37 30 90 68 119 25 20 25 23 13 58 -27 75 -53
121 -86 150 l-33 31 -17 -25 c-9 -14 -19 -23 -22 -20 -3 3 -1 11 5 18 5 7 8
26 7 43 -2 16 0 34 4 40 17 21 19 129 4 175 -14 41 -47 78 -65 72 -5 -1 -8 3
-8 9 0 7 28 9 80 7 44 -2 80 0 80 5 0 4 -35 7 -77 8 -43 0 -91 2 -108 4 -16 2
-166 6 -333 9 -236 4 -303 3 -299 -7z m-503 -307 c22 -22 24 -29 11 -49 -8
-12 -13 -12 -35 2 -14 9 -32 17 -41 17 -22 0 -19 15 8 33 29 21 33 21 57 -3z
m870 1 c0 -6 -4 -13 -10 -16 -5 -3 -10 1 -10 9 0 9 5 16 10 16 6 0 10 -4 10
-9z m-1060 -81 c18 -12 2 -12 -25 0 -13 6 -15 9 -5 9 8 0 22 -4 30 -9z m1380
-35 c-14 -17 -40 -20 -40 -5 0 11 42 31 49 24 2 -2 -2 -10 -9 -19z m-540 -293
c57 -14 76 -22 79 -37 2 -10 13 -26 25 -36 11 -9 17 -21 13 -25 -4 -5 -11 -3
-15 3 -4 6 -23 10 -43 8 -20 -2 -42 1 -50 6 -11 7 -10 9 5 9 20 0 20 0 1 14
-11 8 -23 12 -27 10 -5 -3 -8 2 -8 11 0 10 -5 13 -12 9 -7 -5 -9 -2 -5 8 6 16
-15 19 -29 5 -12 -12 -20 -8 -21 13 -2 24 -7 24 87 2z m260 -13 c121 -10 169
-19 98 -19 -55 0 -249 21 -288 31 -30 8 -29 8 15 4 28 -3 106 -10 175 -16z
m348 -6 c-16 -2 -40 -2 -55 0 -16 2 -3 4 27 4 30 0 43 -2 28 -4z m-477 -136
c-6 -8 -8 -17 -4 -20 3 -4 -1 -7 -11 -7 -14 0 -15 4 -6 20 6 11 16 20 22 20 7
0 7 -4 -1 -13z m-57 -6 c4 -5 -3 -7 -14 -4 -23 6 -26 13 -6 13 8 0 17 -4 20
-9z m-9 -21 c3 -5 2 -10 -4 -10 -5 0 -13 5 -16 10 -3 6 -2 10 4 10 5 0 13 -4
16 -10z m100 -10 c3 -5 2 -10 -4 -10 -5 0 -13 5 -16 10 -3 6 -2 10 4 10 5 0
13 -4 16 -10z m-135 -10 c0 -5 -5 -10 -11 -10 -5 0 -7 5 -4 10 3 6 8 10 11 10
2 0 4 -4 4 -10z m-270 -42 c0 -6 -7 -5 -15 2 -8 7 -15 17 -15 22 0 6 7 5 15
-2 8 -7 15 -17 15 -22z m515 -48 c3 -5 -1 -10 -9 -10 -9 0 -16 5 -16 10 0 6 4
10 9 10 6 0 13 -4 16 -10z m-724 -37 c32 -19 38 -33 12 -33 -18 0 -53 28 -53
42 0 12 8 10 41 -9z"/>
<path d="M286 1230 c-19 -6 -19 -7 -1 -13 20 -8 29 -4 24 11 -2 5 -13 6 -23 2z"/>
<path d="M1820 1210 c157 -8 476 -12 469 -6 -2 2 -141 6 -309 9 -196 3 -253 2
-160 -3z"/>
<path d="M2428 1193 c34 -2 90 -2 125 0 34 2 6 3 -63 3 -69 0 -97 -1 -62 -3z"/>
<path d="M3717 1095 c-4 -44 -10 -108 -13 -142 -4 -35 -10 -63 -15 -63 -5 0
-12 0 -16 -1 -4 0 -12 17 -18 38 -6 21 -18 39 -27 41 -15 3 -15 -1 -6 -30 6
-18 16 -47 23 -63 9 -22 10 -46 3 -85 -5 -30 -10 -80 -12 -111 l-4 -55 29 4
c16 2 35 15 44 29 24 36 9 42 -21 9 -14 -15 -27 -26 -29 -24 -7 7 8 58 17 58
5 0 6 -6 3 -12 -4 -7 1 -4 9 6 9 11 16 31 16 45 0 14 4 33 9 41 14 20 3 32
-19 20 -29 -16 -31 3 -6 51 34 63 48 141 44 239 l-3 85 -8 -80z"/>
<path d="M3880 1150 c366 -31 731 -43 737 -24 3 8 -73 13 -259 18 -145 3 -335
8 -423 10 -148 4 -152 4 -55 -4z"/>
<path d="M40 1136 c0 -9 5 -16 10 -16 6 0 10 4 10 9 0 6 -4 13 -10 16 -5 3
-10 -1 -10 -9z"/>
<path d="M3284 1113 c-3 -10 -10 -30 -16 -45 -15 -41 -7 -72 21 -76 13 -2 28
2 32 10 7 11 11 10 19 -2 8 -12 10 -11 10 8 0 12 5 31 12 42 10 16 9 24 -8 47
-25 34 -62 42 -70 16z"/>
<path d="M3768 1060 c-1 -33 0 -60 5 -60 4 0 7 27 7 60 0 77 -7 77 -12 0z"/>
<path d="M3580 1100 c-25 -8 -25 -8 -2 -9 13 -1 20 -5 17 -11 -3 -5 -1 -10 4
-10 6 0 11 9 11 20 0 11 -1 20 -2 19 -2 -1 -14 -5 -28 -9z"/>
<path d="M3105 1090 c3 -5 21 -10 38 -9 31 1 31 1 7 9 -36 11 -52 11 -45 0z"/>
<path d="M3525 1080 c4 -6 11 -8 16 -5 14 9 11 15 -7 15 -8 0 -12 -5 -9 -10z"/>
<path d="M1631 1050 c-8 -20 -10 -39 -4 -56 9 -26 9 -26 21 15 16 52 3 85 -17
41z"/>
<path d="M3438 1063 c12 -2 30 -2 40 0 9 3 -1 5 -23 4 -22 0 -30 -2 -17 -4z"/>
<path d="M990 1026 c0 -2 7 -7 16 -10 8 -3 12 -2 9 4 -6 10 -25 14 -25 6z"/>
<path d="M2958 1013 c12 -2 30 -2 40 0 9 3 -1 5 -23 4 -22 0 -30 -2 -17 -4z"/>
<path d="M970 990 c-12 -7 -12 -12 -2 -22 9 -9 12 -8 12 8 0 17 2 16 20 -6
l20 -25 0 28 c0 29 -20 36 -50 17z"/>
<path d="M3769 938 c-2 -13 -1 -43 2 -68 5 -41 6 -39 7 23 2 67 -2 87 -9 45z"/>
<path d="M1034 875 c-8 -21 6 -41 17 -24 12 19 11 39 -1 39 -6 0 -13 -7 -16
-15z"/>
<path d="M3230 853 c0 -7 -6 -13 -12 -13 -19 0 -74 -57 -110 -114 -27 -42 -32
-60 -34 -120 -7 -190 -13 -229 -45 -303 -17 -40 -36 -73 -40 -73 -12 0 -11 11
3 64 9 36 9 50 -1 73 l-13 28 -10 -25 c-6 -15 -12 -20 -15 -12 -6 16 -23 15
-44 -4 -9 -8 -68 -26 -131 -39 -62 -13 -124 -27 -138 -33 -24 -9 -94 -21 -245
-43 -38 -5 -89 -15 -113 -21 -38 -10 -43 -14 -40 -37 3 -28 7 -29 73 -12 22 5
81 15 130 21 158 21 423 78 478 105 41 19 44 19 49 -9 9 -55 -178 -113 -571
-176 -69 -11 -126 -22 -129 -24 -2 -3 -1 -14 3 -25 8 -26 16 -26 180 -1 311
46 441 79 490 121 41 36 46 36 39 0 -6 -29 -5 -30 42 -37 27 -3 57 -11 66 -16
14 -7 16 -5 11 8 -4 12 -3 15 5 10 7 -4 12 -18 12 -31 0 -29 19 -43 31 -24 12
19 11 72 -1 104 -9 23 -7 27 17 36 15 5 46 13 70 16 40 5 46 3 88 -36 24 -22
49 -41 55 -41 5 0 10 -4 10 -10 0 -6 -43 -10 -110 -10 l-110 0 0 -39 0 -39 68
-6 c143 -15 147 -14 150 17 3 26 5 27 63 27 l59 0 0 53 0 54 75 -5 c66 -4 77
-2 92 16 19 21 132 43 221 42 47 -1 53 10 20 37 -29 24 -36 48 -11 39 15 -6
16 -5 5 6 -11 11 -16 10 -28 -7 -8 -11 -12 -26 -9 -34 3 -9 3 -13 0 -9 -4 3
-21 2 -38 -3 -30 -9 -316 -13 -325 -5 -2 2 -7 30 -11 61 -4 31 -14 61 -22 66
-8 6 -36 8 -64 5 -27 -3 -88 -8 -134 -12 l-84 -7 7 24 c8 28 23 114 31 179 3
24 11 48 18 52 8 5 9 8 0 8 -8 0 -10 23 -6 79 4 48 1 85 -5 97 -6 10 -12 13
-12 7z m-104 -221 c-18 -16 -18 -16 -6 6 6 13 14 21 18 18 3 -4 -2 -14 -12
-24z"/>
<path d="M1025 777 c-10 -39 1 -57 14 -23 8 19 8 33 2 39 -6 6 -12 1 -16 -16z"/>
<path d="M3766 775 c4 -8 1 -15 -5 -15 -6 0 -11 -15 -11 -33 0 -20 -12 -53
-31 -81 l-30 -48 30 23 c31 25 61 93 61 141 0 15 -4 28 -10 28 -5 0 -7 -7 -4
-15z"/>
<path d="M716 773 c-12 -12 -6 -33 9 -33 8 0 15 6 15 14 0 17 -14 28 -24 19z"/>
<path d="M3319 743 c-5 -76 -4 -142 2 -178 4 -24 7 8 8 83 0 67 -1 122 -4 122
-3 0 -6 -12 -6 -27z"/>
<path d="M3016 497 c3 -10 9 -15 12 -12 3 3 0 11 -7 18 -10 9 -11 8 -5 -6z"/>
<path d="M2870 475 c-7 -8 -16 -15 -21 -15 -4 0 -28 -21 -52 -47 l-45 -47
-163 -2 c-158 -2 -295 -14 -331 -29 -11 -4 -18 -3 -18 4 0 7 -28 11 -80 11
-44 0 -80 -4 -80 -9 0 -6 -13 -6 -32 0 -82 24 -97 22 -128 -13 l-29 -33 82 -7
c45 -3 115 -6 156 -7 l74 -1 -22 -24 c-25 -27 -22 -41 8 -49 25 -6 38 9 43 48
3 25 9 31 48 43 39 12 167 18 260 11 44 -3 162 27 245 62 79 33 85 35 105 38
6 0 10 6 10 12 0 17 29 41 42 34 7 -4 2 3 -11 14 -28 25 -44 26 -61 6z"/>
<path d="M3010 429 c6 -18 7 -49 4 -66 -6 -34 11 -48 18 -15 5 22 -10 94 -22
106 -6 6 -6 -5 0 -25z"/>
<path d="M2350 440 c-12 -8 -9 -10 13 -10 16 0 26 4 22 10 -8 12 -16 12 -35 0z"/>
<path d="M3042 405 c0 -16 2 -22 5 -12 2 9 2 23 0 30 -3 6 -5 -1 -5 -18z"/>
<path d="M1670 370 c0 -45 27 -80 61 -80 40 0 42 12 13 64 -19 35 -32 46 -50
46 -20 0 -24 -5 -24 -30z"/>
<path d="M1973 383 c9 -2 25 -2 35 0 9 3 1 5 -18 5 -19 0 -27 -2 -17 -5z"/>
<path d="M1777 335 c12 -25 23 -35 39 -35 12 0 24 5 26 11 2 5 11 11 20 13 10
1 21 6 25 11 4 4 2 5 -6 0 -9 -5 -12 -3 -9 6 3 8 13 13 22 13 9 -1 16 2 16 7
0 5 -34 9 -75 9 l-75 0 17 -35z"/>
<path d="M1839 283 l-24 -28 28 24 c15 14 27 26 27 28 0 8 -8 1 -31 -24z"/>
<path d="M1745 220 c3 -5 12 -7 20 -3 21 7 19 13 -6 13 -11 0 -18 -4 -14 -10z"/>
<path d="M3855 202 c-19 -4 -44 -29 -45 -44 -1 -23 66 -2 103 32 18 17 17 18
-10 17 -15 -1 -37 -3 -48 -5z"/>
<path d="M2940 109 c-26 -19 -99 -40 -280 -83 l-105 -25 160 2 c145 2 164 4
203 25 47 25 55 37 50 75 -3 24 -3 24 -28 6z"/>
<path d="M1935 60 c3 -5 16 -10 28 -9 21 0 21 1 2 9 -28 12 -37 12 -30 0z"/>
<path d="M3420 61 c0 -8 41 -23 47 -17 2 1 -8 8 -22 14 -14 6 -25 8 -25 3z"/>
<path d="M1585 51 c-6 -5 -28 -19 -50 -30 l-40 -22 60 3 c56 3 60 5 60 27 0
26 -15 37 -30 22z"/>
<path d="M2980 46 c0 -8 -3 -21 -6 -30 -5 -14 9 -16 117 -15 68 0 117 3 109 6
-8 2 -29 11 -47 19 -32 15 -121 34 -154 34 -11 0 -19 -6 -19 -14z"/>
<path d="M3625 50 c-27 -4 -42 -8 -32 -8 10 -1 17 -10 17 -22 0 -13 7 -20 20
-20 13 0 18 5 14 15 -5 11 1 15 22 16 16 0 58 6 94 14 l65 13 -75 -1 c-41 0
-97 -3 -125 -7z"/>
<path d="M3221 31 c-23 -15 20 -31 81 -31 l53 1 -40 15 c-58 22 -78 26 -94 15z"/>
<path d="M720 16 c0 -9 5 -16 10 -16 6 0 10 4 10 9 0 6 -4 13 -10 16 -5 3 -10
-1 -10 -9z"/>
</g>
</svg>
